P3
4 6 255
255 0 0
255 1 0
255 2 0
255 3 0
255 4 0
255 5 0
255 6 0
255 7 0
255 8 0
255 9 0
255 10 0
255 11 0
255 12 0
255 13 0
255 14 0
255 15 0
255 16 0
255 17 0
255 18 0
255 19 0
255 20 0
255 21 0
255 22 0
255 23 0